<svg width="100" height="55" viewBox="0 0 138 77" fill="none" xmlns="http://www.w3.org/2000/svg">
<path d="M34.2094 17.5838C34.0789 18.2148 33.9103 18.806 33.7237 19.379L108.049 34.7356C108.104 34.1354 108.183 33.5262 108.314 32.8951C112.087 14.6118 140.492 20.4488 136.713 38.7611C135.146 46.3588 129.321 49.7804 123.322 49.882C128.976 52.2664 133.183 57.7806 131.579 65.5614C127.806 83.8447 99.401 78.0059 103.181 59.6936C103.31 59.0626 103.481 58.4733 103.667 57.8985L29.3415 42.5418C29.2871 43.142 29.2073 43.7512 29.0768 44.3823C25.3035 62.6656 -3.1012 56.8268 0.67752 38.5145C2.24519 30.9169 8.07011 27.4952 14.0689 27.3937C8.41445 25.0092 4.20615 19.495 5.81188 11.716C9.58335 -6.56548 37.9899 -0.730331 34.2094 17.5838Z" fill="white"/>
</svg>
